<?xml version="1.0" encoding="UTF-8"?>
<svg id="katman_1" data-name="katman 1" xmlns="http://www.w3.org/2000/svg" version="1.1" viewBox="0 0 84.11 83.7">
  <defs>
    <style>
      .cls-1 {
        fill: #000;
        stroke-width: 0px;
      }
    </style>
  </defs>
  <polygon class="cls-1" points="72.9 17.3 76.5 17.3 81.1 12.7 77.5 12.7 72.9 17.3"/>
  <polygon class="cls-1" points="70.7 3 66.1 7.5 66.1 11.1 70.7 6.6 70.7 3"/>
  <path class="cls-1" d="M65.2,23.6c4.9,6,7.9,13.8,7.9,22.1,0,19.3-15.7,35-35,35S3.1,65,3.1,45.7,18.8,10.7,38.1,10.7c8.4,0,16.1,3,22.1,7.9l2.1-2.1c-6.6-5.5-15.1-8.8-24.3-8.8C17,7.7,0,24.7,0,45.7s17,38,38,38,38-17,38-38c0-9.2-3.3-17.7-8.8-24.3l-2,2.2Z"/>
  <path class="cls-1" d="M57.4,21.5c-5.3-4.2-12-6.8-19.3-6.8-17.1,0-31,13.9-31,31s13.9,31,31,31,31-13.9,31-31c0-7.3-2.5-14-6.8-19.3l-2.1,2.1c3.7,4.8,5.9,10.7,5.9,17.2,0,15.4-12.6,28-28,28s-28-12.6-28-28,12.6-28,28-28c6.5,0,12.4,2.2,17.2,5.9l2.1-2.1Z"/>
  <path class="cls-1" d="M52.4,26.5c-4-3-9-4.7-14.3-4.7-13.2,0-24,10.8-24,24s10.8,24,24,24,24-10.8,24-24c0-5.4-1.8-10.3-4.7-14.3l-2.2,2.2c2.4,3.4,3.9,7.6,3.9,12.2,0,11.6-9.4,21-21,21s-21-9.4-21-21,9.4-21,21-21c4.5,0,8.7,1.5,12.2,3.9l2.1-2.3Z"/>
  <path class="cls-1" d="M47.3,31.5c-2.7-1.7-5.9-2.8-9.3-2.8-9.4,0-17,7.6-17,17s7.6,17,17,17,17-7.6,17-17c0-3.4-1-6.6-2.8-9.3l-2.1,2.3c1.2,2.1,2,4.5,2,7.1,0,7.7-6.3,14-14,14s-14-6.3-14-14,6.3-14,14-14c2.6,0,5,.7,7.1,2l2.1-2.3Z"/>
  <path class="cls-1" d="M41.9,37c-1.2-.5-2.5-.8-3.8-.8-5.3,0-9.6,4.3-9.6,9.6s4.3,9.6,9.6,9.6,9.6-4.3,9.6-9.6c0-1.4-.3-2.7-.8-3.8l-6.3,6.3c-.7.7-1.6,1-2.5,1s-1.8-.3-2.5-1c-1.4-1.4-1.4-3.6,0-5l6.3-6.3Z"/>
  <path class="cls-1" d="M71.3,10.4l-34.3,34.3c-.6.6-.6,1.5,0,2.1.3.3.7.4,1.1.4s.8-.1,1.1-.4L73.5,12.5c.6-.6.6-1.5,0-2.1-.6-.6-1.6-.6-2.2,0Z"/>
  <path class="cls-1" d="M65.8,13.9l6.4-6.4c.1-.1.1-.2.2-.3h0c0-.1.1-.2.1-.3h0V.9h0c0-.1,0-.2-.1-.3h0c0-.1-.1-.2-.2-.3s-.2-.1-.3-.2h0c-.1,0-.2-.1-.3-.1s-.2,0-.3.1h0c-.1,0-.2.1-.3.2l-6.3,6.3c-.1.1-.1.2-.2.3h0c0,.1-.1.2-.1.3h0v5.7c-.2.3-.1.7.1,1,.4.4.9.4,1.3,0ZM66.1,7.5l4.5-4.5v3.6l-4.5,4.5v-3.6Z"/>
  <path class="cls-1" d="M83.9,11.1c-.3-.3-.7-.3-1-.1h-5.8c-.1,0-.2,0-.3.1h0c-.1,0-.2.1-.3.2l-6.3,6.3c-.1.1-.1.2-.2.3h0c0,.1-.1.2-.1.3s0,.2.1.3h0c0,.1.1.2.2.3.1.1.2.1.3.2h0c.1,0,.2.1.3.1h6c.1,0,.2,0,.3-.1h0c.1,0,.2-.1.3-.2l6.4-6.4c.4-.4.4-.9.1-1.3ZM76.5,17.3h-3.6l4.5-4.5h3.7l-4.6,4.5Z"/>
</svg>